<svg width="884" height="785" viewBox="0 0 884 785" fill="none" xmlns="http://www.w3.org/2000/svg">
<g clip-path="url(#clip0_46:42)">
<path d="M514.85 765.389L264.266 766.148C197.786 747.876 143.319 684.412 142.975 589.261C142.908 574.927 144.092 560.611 146.515 546.449L348.348 504.971L504.051 472.976C515.524 482.374 526.215 492.542 536.035 503.395L387.147 575.308L316.91 609.234L395.835 584.327L559.649 532.633C569.864 546.92 578.966 561.847 586.888 577.305L537.462 624.03L593.374 590.548C593.613 591.06 593.851 591.574 594.088 592.089C629.523 669.039 585.557 765.175 514.85 765.389Z" fill="#F2F2F2"/>
<path d="M473.669 451.44C435.774 461.395 389.186 473.973 341.285 487.047C272.027 505.954 200.03 525.908 147.614 540.494L147.648 540.323C149.585 530.088 154.14 520.417 160.941 512.098C199.77 465.919 249.211 433.66 304.238 421.68H304.243C319.716 418.303 335.564 416.574 351.472 416.525C395.251 416.393 436.72 428.953 473.669 451.44Z" fill="#F2F2F2"/>
<path d="M311.274 785C405.462 785 481.817 774.926 481.817 762.5C481.817 750.074 405.462 740 311.274 740C217.085 740 140.73 750.074 140.73 762.5C140.73 774.926 217.085 785 311.274 785Z" fill="#56403D"/>
<path d="M250.6 552.5V587.5L277.93 590.5L294.329 571.5L281.21 547.5L250.6 552.5Z" fill="#FBBEBE"/>
<path d="M354.457 696.5L368.669 731.5L394.906 723.5L375.228 694.5L354.457 696.5Z" fill="#FBBEBE"/>
<path d="M321.659 398.5C321.659 398.5 179.539 385.5 183.912 421.5C188.285 457.5 250.599 560.5 250.599 560.5L292.142 553.5C292.142 553.5 262.625 511.5 264.811 497.5C266.998 483.5 258.252 464.5 258.252 464.5L279.023 467.5L291.049 484.5L316.193 602.5L354.456 708.5L382.88 701.5C382.88 701.5 367.575 657.5 371.948 643.5C376.321 629.5 351.176 575.5 351.176 575.5L368.668 481.5C368.668 481.5 402.558 472.5 392.719 441.5C382.88 410.5 321.659 398.5 321.659 398.5Z" fill="#534241"/>
<path d="M262.625 576.5C262.625 576.5 246.226 564.5 247.32 569.5C247.938 573.145 247.938 576.855 247.32 580.5L232.014 611.5C232.014 611.5 194.845 642.5 228.735 643.5C262.625 644.5 280.117 612.5 280.117 612.5C280.117 612.5 327.125 580.5 321.659 575.5C316.193 570.5 287.505 559.017 287.505 559.017C287.505 559.017 277.93 583.5 262.625 576.5Z" fill="#41312E"/>
<path d="M367.575 715.5C367.575 715.5 352.27 702.5 351.176 708.5C350.083 714.5 348.99 722.5 348.99 722.5L326.032 742.5C326.032 742.5 293.235 771.5 321.659 772.5C329.874 772.839 338.068 771.488 345.636 768.546C353.204 765.604 359.954 761.146 365.388 755.5C365.388 755.5 406.931 747.5 404.745 741.5C402.558 735.5 391.595 712.288 386.691 711.394C381.787 710.5 380.694 723.5 367.575 715.5Z" fill="#41312E"/>
<path d="M315.1 254.5C333.817 254.5 348.99 240.621 348.99 223.5C348.99 206.379 333.817 192.5 315.1 192.5C296.383 192.5 281.21 206.379 281.21 223.5C281.21 240.621 296.383 254.5 315.1 254.5Z" fill="#FBBEBE"/>
<path d="M299.795 244.5C299.795 244.5 314.007 279.5 312.913 282.5C311.82 285.5 357.736 257.5 357.736 257.5C357.736 257.5 338.058 253.5 338.058 237.5L299.795 244.5Z" fill="#FBBEBE"/>
<path d="M424.423 295.5C424.423 295.5 444.101 313.5 447.381 319.5C450.66 325.5 525 401.5 525 401.5C525 401.5 574.195 454.5 554.517 455.5C534.839 456.5 509.695 413.5 509.695 413.5C509.695 413.5 439.728 366.5 436.448 355.5L395.999 317.5L424.423 295.5Z" fill="#FBBEBE"/>
<path d="M321.659 274.5H309.634L293.235 298.5C293.235 298.5 276.837 311.5 288.862 338.5C300.888 365.5 310.727 399.5 310.727 399.5C310.727 399.5 345.71 403.5 352.27 413.5C358.829 423.5 395.999 455.5 395.999 455.5C395.999 455.5 402.558 434.5 400.372 403.5C398.185 372.5 400.372 325.5 400.372 325.5L398.185 263.5C398.185 263.5 355.961 254.548 353.022 256.024C350.083 257.5 321.659 274.5 321.659 274.5Z" fill="#895C58"/>
<path d="M381.787 266.5L398.185 263.5C398.185 263.5 415.677 273.5 432.075 302.5C432.075 302.5 397.092 323.5 393.812 322.5C390.533 321.5 381.787 266.5 381.787 266.5Z" fill="#895C58"/>
<path d="M281.21 334.5C281.21 334.5 256.066 371.5 263.718 385.5C271.371 399.5 281.21 398.5 281.21 398.5C281.21 398.5 299.795 395.5 299.795 381.5C299.795 367.5 307.447 366.5 307.447 366.5C307.447 366.5 355.549 330.5 336.964 330.5C318.38 330.5 293.235 355.5 293.235 355.5L292.142 332.5L281.21 334.5Z" fill="#FBBEBE"/>
<path d="M297.608 297.5C297.608 297.5 281.21 301.5 277.93 317.5C274.65 333.5 275.744 341.5 275.744 341.5L297.608 339.5V297.5Z" fill="#895C58"/>
<path opacity="0.1" d="M266.998 377.5C266.998 377.5 284.489 356.5 286.676 359.5L266.998 377.5Z" fill="black"/>
<path d="M332.316 185.971C332.316 185.971 314.343 169.545 297.041 180.574C279.738 191.602 271.681 202.107 273.612 209.24C275.543 216.374 280.937 226.231 280.937 226.231C280.937 226.231 277.338 211.443 291.884 209.995C306.431 208.546 326.319 199.24 326.319 199.24L340.703 225.527C340.703 225.527 342.453 219.314 347.844 220.955C353.234 222.596 348.091 187.568 332.316 185.971Z" fill="#534241"/>
<path d="M209.333 735.894C209.333 750.475 199.857 755.566 188.168 755.566C187.897 755.566 187.626 755.564 187.356 755.558C186.815 755.548 186.278 755.524 185.748 755.491C175.199 754.808 167.002 749.455 167.002 735.894C167.002 721.861 186.607 704.153 188.08 702.843L188.083 702.84C188.139 702.789 188.168 702.765 188.168 702.765C188.168 702.765 209.333 721.314 209.333 735.894Z" fill="#FF7363"/>
<path d="M187.397 753.336L195.138 743.441L187.377 754.422L187.357 755.558C186.815 755.548 186.278 755.524 185.748 755.491L186.583 740.903L186.576 740.79L186.591 740.768L186.669 739.391L178.889 728.383L186.694 738.357L186.712 738.65L187.342 727.628L180.682 716.253L187.424 725.693L188.08 702.842L188.083 702.765V702.84L187.973 720.859L194.604 713.716L187.946 722.412L187.771 732.28L193.962 722.809L187.745 733.732L187.647 739.219L196.635 726.037L187.613 741.133L187.397 753.336Z" fill="#56403D"/>
<path d="M690.163 219.666C690.163 219.666 683.437 238.796 672.941 266.281C669.547 275.21 665.745 285.011 661.647 295.327C655.938 309.692 649.65 325.059 643.064 340.426C639.013 349.884 634.852 359.327 630.645 368.556C608.026 418.019 583.937 460.872 568.154 461.473C532.694 462.818 456.736 245.792 448.446 221.812C447.961 220.41 447.71 219.666 447.71 219.666H690.163Z" fill="#534241"/>
<path opacity="0.1" d="M672.941 266.281C669.547 275.21 665.745 285.011 661.647 295.327L567.716 219.666H615.065L672.941 266.281Z" fill="black"/>
<path opacity="0.1" d="M643.064 340.426C639.013 349.884 634.852 359.327 630.644 368.556L448.446 221.812C447.961 220.41 447.71 219.666 447.71 219.666H493.135L643.064 340.426Z" fill="black"/>
<path d="M573.141 27.4512C562.026 35.5047 544.451 32.4595 533.769 40.9889C526.462 46.8232 524.513 56.7999 526.507 65.4822C528.501 74.1645 533.799 81.8686 539.129 89.2807C542.807 94.3961 546.623 99.552 551.792 103.443C559.018 108.882 568.293 111.414 577.383 113.448C597.18 117.875 617.396 120.556 637.752 121.452C646.83 121.852 657.111 121.452 663.227 115.304C666.789 111.723 668.221 106.816 669.265 102.07C670.897 94.6464 671.805 86.6538 668.431 79.7388C665.658 74.055 660.32 69.7946 654.917 66.0123C637.967 54.1483 618.003 44.3262 607.658 27.2499C603.546 20.4623 601.01 12.5969 594.778 7.33054C586.654 0.466316 568.578 -2.34046 559.013 2.24495C560.491 5.32671 579.804 22.6234 573.141 27.4512Z" fill="#FCB9B2"/>
<path d="M479.742 107.494C476.446 117.947 473.41 129.007 476.185 139.586C479.844 153.533 493.213 163.979 507.878 169.056C522.544 174.133 538.537 174.726 554.207 175.262L636.25 178.065C646.56 178.417 657.07 178.803 666.76 182.045C674.746 184.718 684.239 189.118 690.897 184.279C693.917 182.084 695.274 178.53 696.345 175.141C699.832 164.113 701.783 152.002 697.094 141.354C691.72 129.151 678.469 121.133 664.711 117.3C650.953 113.467 636.382 113.094 622.087 111.646C607.587 110.177 593.249 107.581 579.23 103.886C567.51 100.797 555.636 96.7197 546.967 88.8715C542.278 84.6263 538.727 79.4489 534.307 74.9684C508.988 49.302 485.969 87.7412 479.742 107.494Z" fill="#FCB9B2"/>
<path d="M461.713 155.517C453.734 158.786 446.812 163.885 441.619 170.32C436.426 176.755 433.138 184.307 432.072 192.245C431.007 200.184 432.201 208.24 435.538 215.632C438.875 223.025 444.243 229.504 451.122 234.442C463.614 243.41 479.962 246.528 495.801 247.572C511.268 248.592 526.801 247.891 542.289 247.189L679.321 240.98C687.353 240.617 696.444 239.771 701.347 233.94C705.007 229.588 705.222 223.586 704.348 218.154C701.205 198.614 685.076 181.316 664.478 175.394C656.709 173.161 648.53 172.454 640.423 171.76L581.681 166.732C573.771 166.055 565.814 165.371 558.147 163.464C534.917 157.689 514.16 140.825 490.243 143.322C474.017 145.016 460.658 155.406 448.871 165.746" fill="#FCB9B2"/>
<path opacity="0.1" d="M538.435 70.8609C538.435 70.8609 557.607 102.524 655.951 115.309L538.435 70.8609Z" fill="black"/>
<path opacity="0.1" d="M484.036 153.793C484.036 153.793 519.664 186.757 666.7 186.757L484.036 153.793Z" fill="black"/>
<path d="M566.59 55.1219C571.774 55.1219 575.976 53.8407 575.976 52.2603C575.976 50.6798 571.774 49.3987 566.59 49.3987C561.407 49.3987 557.205 50.6798 557.205 52.2603C557.205 53.8407 561.407 55.1219 566.59 55.1219Z" fill="#56403D"/>
<path d="M597.874 73.7225C603.058 73.7225 607.26 72.4413 607.26 70.8609C607.26 69.2805 603.058 67.9993 597.874 67.9993C592.691 67.9993 588.489 69.2805 588.489 70.8609C588.489 72.4413 592.691 73.7225 597.874 73.7225Z" fill="#56403D"/>
<path d="M633.851 93.7539C639.035 93.7539 643.237 92.4727 643.237 90.8923C643.237 89.3118 639.035 88.0306 633.851 88.0306C628.668 88.0306 624.466 89.3118 624.466 90.8923C624.466 92.4727 628.668 93.7539 633.851 93.7539Z" fill="#56403D"/>
<path d="M508.715 102.339C513.898 102.339 518.1 101.058 518.1 99.4772C518.1 97.8967 513.898 96.6155 508.715 96.6155C503.531 96.6155 499.329 97.8967 499.329 99.4772C499.329 101.058 503.531 102.339 508.715 102.339Z" fill="#56403D"/>
<path d="M588.489 129.524C593.673 129.524 597.874 128.243 597.874 126.663C597.874 125.082 593.673 123.801 588.489 123.801C583.306 123.801 579.104 125.082 579.104 126.663C579.104 128.243 583.306 129.524 588.489 129.524Z" fill="#56403D"/>
<path d="M475.866 185.326C481.05 185.326 485.251 184.045 485.251 182.464C485.251 180.884 481.05 179.603 475.866 179.603C470.683 179.603 466.481 180.884 466.481 182.464C466.481 184.045 470.683 185.326 475.866 185.326Z" fill="#56403D"/>
<path d="M535.306 132.386C540.49 132.386 544.691 131.105 544.691 129.524C544.691 127.944 540.49 126.663 535.306 126.663C530.123 126.663 525.921 127.944 525.921 129.524C525.921 131.105 530.123 132.386 535.306 132.386Z" fill="#56403D"/>
<path d="M499.329 206.788C504.513 206.788 508.715 205.507 508.715 203.927C508.715 202.346 504.513 201.065 499.329 201.065C494.146 201.065 489.944 202.346 489.944 203.927C489.944 205.507 494.146 206.788 499.329 206.788Z" fill="#56403D"/>
<path d="M560.333 193.911C565.517 193.911 569.719 192.63 569.719 191.049C569.719 189.469 565.517 188.188 560.333 188.188C555.15 188.188 550.948 189.469 550.948 191.049C550.948 192.63 555.15 193.911 560.333 193.911Z" fill="#56403D"/>
<path d="M597.092 262.59C602.708 262.59 607.26 253.942 607.26 243.274C607.26 232.606 602.708 223.958 597.092 223.958C591.477 223.958 586.925 232.606 586.925 243.274C586.925 253.942 591.477 262.59 597.092 262.59Z" fill="#FF7363"/>
<path d="M609.606 269.744C615.221 269.744 619.773 261.096 619.773 250.428C619.773 239.76 615.221 231.112 609.606 231.112C603.991 231.112 599.439 239.76 599.439 250.428C599.439 261.096 603.991 269.744 609.606 269.744Z" fill="#F97869"/>
<path d="M588.745 436.682C588.829 436.3 590.937 427.165 601.967 413.838C612.087 401.612 631.992 383.418 669.355 366.179C740.136 333.521 755.975 272.165 756.126 271.548L758.017 271.939C757.979 272.095 754.017 287.804 741.267 307.353C724.346 333.256 699.703 354.212 670.228 367.763C599.567 400.365 590.726 436.671 590.644 437.034L588.745 436.682Z" fill="#57403D"/>
<path d="M759.746 264.984C766.704 264.984 772.345 259.824 772.345 253.459C772.345 247.095 766.704 241.935 759.746 241.935C752.788 241.935 747.147 247.095 747.147 253.459C747.147 259.824 752.788 264.984 759.746 264.984Z" fill="#FCBCB2"/>
<path d="M757.253 320.9C764.211 320.9 769.852 315.74 769.852 309.376C769.852 303.011 764.211 297.851 757.253 297.851C750.295 297.851 744.654 303.011 744.654 309.376C744.654 315.74 750.295 320.9 757.253 320.9Z" fill="#57403D"/>
<path d="M716.267 324.824C723.226 324.824 728.867 319.665 728.867 313.3C728.867 306.935 723.226 301.775 716.267 301.775C709.309 301.775 703.668 306.935 703.668 313.3C703.668 319.665 709.309 324.824 716.267 324.824Z" fill="#FCBCB2"/>
<path d="M722.638 362.87C729.596 362.87 735.237 357.71 735.237 351.345C735.237 344.981 729.596 339.821 722.638 339.821C715.68 339.821 710.039 344.981 710.039 351.345C710.039 357.71 715.68 362.87 722.638 362.87Z" fill="#FCBCB2"/>
<path d="M663.692 363.651C670.651 363.651 676.291 358.491 676.291 352.126C676.291 345.761 670.651 340.601 663.692 340.601C656.734 340.601 651.093 345.761 651.093 352.126C651.093 358.491 656.734 363.651 663.692 363.651Z" fill="#57403D"/>
<path d="M594.01 441.727C594.01 441.727 605.859 413.089 649.39 420.996L594.01 441.727Z" fill="#57403D"/>
<path d="M583.031 431.713C583.031 431.713 601.25 406.026 568.516 378.613L583.031 431.713Z" fill="#573F3D"/>
<path d="M881.314 445.349L860.458 437.82L839.6 430.292L857.156 417.534L874.712 404.775L878.014 425.062L881.314 445.349Z" fill="#F2F2F2"/>
<path d="M41.7143 315.349L20.8577 307.82L0 300.292L17.5562 287.534L35.1123 274.775L38.4139 295.062L41.7143 315.349Z" fill="#F2F2F2"/>
<path d="M777.457 556.349L756.601 548.82L735.743 541.292L753.299 528.534L770.855 515.775L774.157 536.062L777.457 556.349Z" fill="#F2F2F2"/>
<path d="M890 627.105L870.301 636.902L850.603 646.7L851.176 626.197L851.749 605.693L870.875 616.399L890 627.105Z" fill="#F2F2F2"/>
<path d="M147.697 235.105L127.999 244.902L108.301 254.7L108.874 234.197L109.446 213.693L128.573 224.399L147.697 235.105Z" fill="#F2F2F2"/>
</g>
<defs>
<clipPath id="clip0_46:42">
<rect width="890" height="785" fill="white"/>
</clipPath>
</defs>
</svg>
